<svg width="75" height="56" viewBox="0 0 75 56" fill="none" xmlns="http://www.w3.org/2000/svg">
<g id="Folder">
<path id="Vector" d="M30.8078 2.2672L34.9326 7.19626C35.3026 7.63832 35.7725 7.98607 36.3033 8.21081C36.8342 8.43555 37.411 8.53085 37.9859 8.48885L56.3091 7.14169C57.676 7.04122 59.0269 7.48766 60.0649 8.38285C61.1028 9.27805 61.7428 10.5487 61.8442 11.9156L64.3346 45.7613C64.4327 47.1269 63.9852 48.4755 63.0902 49.5116C62.1953 50.5476 60.9259 51.1864 59.5606 51.2878L8.7591 55.022C7.39167 55.1224 6.04035 54.6756 5.00233 53.7798C3.96432 52.884 3.32463 51.6126 3.22396 50.2452L0.00972124 6.65912C-0.0606605 5.69888 0.253252 4.75 0.882417 4.02118C1.51158 3.29236 2.40447 2.8433 3.3647 2.77275L27.7573 0.97461C28.3318 0.932366 28.9082 1.02757 29.4387 1.25235C29.9691 1.47712 30.4385 1.825 30.8078 2.2672Z" fill="#09335D"/>
<g id="Group" opacity="0.3">
<path id="Vector_2" d="M30.8078 2.2672L34.9326 7.19626C35.3026 7.63832 35.7725 7.98607 36.3033 8.21081C36.8342 8.43555 37.411 8.53085 37.9859 8.48885L56.3091 7.14169C57.676 7.04122 59.0269 7.48766 60.0649 8.38285C61.1028 9.27805 61.7428 10.5487 61.8442 11.9156L64.3346 45.7613C64.4327 47.1269 63.9852 48.4755 63.0902 49.5116C62.1953 50.5476 60.9259 51.1864 59.5606 51.2878L8.7591 55.022C7.39167 55.1224 6.04035 54.6756 5.00233 53.7798C3.96432 52.884 3.32463 51.6126 3.22396 50.2452L0.00972124 6.65912C-0.0606605 5.69888 0.253252 4.75 0.882417 4.02118C1.51158 3.29236 2.40447 2.8433 3.3647 2.77275L27.7573 0.97461C28.3318 0.932366 28.9082 1.02757 29.4387 1.25235C29.9691 1.47712 30.4385 1.825 30.8078 2.2672Z" fill="black"/>
</g>
<path id="Vector_3" d="M21.5999 3.92511L4.20848 5.20531C3.81454 5.2343 3.51869 5.57717 3.54769 5.97112L3.54895 5.9883C3.57795 6.38225 3.92081 6.67809 4.31476 6.64909L21.7061 5.3689C22.1001 5.3399 22.3959 4.99704 22.3669 4.60309L22.3657 4.58591C22.3367 4.19196 21.9938 3.89611 21.5999 3.92511Z" fill="white"/>
<path id="Vector_4" d="M19.0985 7.32277L4.27975 8.36009C3.88474 8.38774 3.58693 8.73037 3.61458 9.12539L3.61579 9.14262C3.64344 9.53763 3.98607 9.83544 4.38109 9.80779L19.1999 8.77047C19.5949 8.74282 19.8927 8.40018 19.865 8.00517L19.8638 7.98794C19.8362 7.59293 19.4936 7.29512 19.0985 7.32277Z" fill="white"/>
<path id="Vector_5" d="M61.2296 49.3656L7.85722 53.298C7.21273 53.3439 6.57628 53.1328 6.087 52.7108C5.59773 52.2888 5.29542 51.6902 5.24619 51.046L2.82474 18.1367C2.77806 17.4921 2.9889 16.8552 3.41104 16.3657C3.83319 15.8763 4.43219 15.5742 5.07672 15.5257L58.4519 11.5962C59.0966 11.5495 59.7335 11.7604 60.2229 12.1825C60.7124 12.6047 61.0145 13.2037 61.063 13.8482L63.4873 46.7546C63.5324 47.3998 63.3202 48.0367 62.8972 48.5259C62.4741 49.0152 61.8746 49.3171 61.2296 49.3656Z" fill="#E0E0E0"/>
<path id="Vector_6" d="M58.4481 11.5987L5.83853 15.4714C4.49532 15.5702 3.48659 16.7393 3.58546 18.0825L6.00773 50.9889C6.10661 52.3321 7.27565 53.3409 8.61886 53.242L61.2284 49.3693C62.5716 49.2705 63.5804 48.1014 63.4815 46.7582L61.0592 13.8518C60.9604 12.5086 59.7913 11.4998 58.4481 11.5987Z" fill="white"/>
<path id="Vector_7" d="M10.3441 53.1142L21.357 52.3013L11.3868 19.5098L10.3441 53.1142Z" fill="#F5F5F5"/>
<path id="Vector_8" d="M71.6101 40.1805L18.838 49.0649C18.1987 49.1696 17.5439 49.0168 17.0169 48.64C16.4899 48.2632 16.1336 47.693 16.0259 47.0542L10.5482 14.5212C10.4436 13.8822 10.5964 13.2278 10.9733 12.7012C11.3502 12.1747 11.9203 11.819 12.5589 11.712L65.331 2.82757C65.9704 2.72208 66.6256 2.87453 67.1527 3.25147C67.6799 3.62841 68.0361 4.19907 68.143 4.83826L73.6207 37.3741C73.7238 38.0126 73.5703 38.6659 73.1936 39.1916C72.8169 39.7173 72.2477 40.0727 71.6101 40.1805Z" fill="white"/>
<path id="Vector_9" opacity="0.3" d="M65.3285 2.82807L13.3092 11.5891C11.9811 11.8128 11.0858 13.0708 11.3094 14.399L16.7893 46.9362C17.013 48.2643 18.271 49.1596 19.5992 48.936L71.6185 40.1749C72.9466 39.9512 73.842 38.6932 73.6183 37.3651L68.1384 4.82786C67.9147 3.49972 66.6567 2.60438 65.3285 2.82807Z" fill="#09335D"/>
<path id="Vector_10" opacity="0.2" d="M64.6625 9.83689L16.2278 17.9888C15.9464 18.0354 15.658 17.9689 15.4256 17.8037C15.1931 17.6385 15.0354 17.388 14.9869 17.107L14.7169 15.4898C14.6934 15.3506 14.6977 15.2082 14.7293 15.0706C14.7609 14.933 14.8193 14.803 14.9012 14.688C14.9831 14.5731 15.0869 14.4754 15.2066 14.4005C15.3262 14.3257 15.4595 14.2751 15.5987 14.2518L64.0334 6.097C64.3149 6.04959 64.6036 6.11582 64.8363 6.28117C65.069 6.44651 65.2265 6.69744 65.2743 6.97884L65.5472 8.596C65.593 8.87768 65.5257 9.16605 65.36 9.39841C65.1944 9.63078 64.9437 9.78836 64.6625 9.83689Z" fill="#09335D"/>
<path id="Vector_11" opacity="0.2" d="M65.1856 12.7457L16.6819 20.9119C16.5464 20.9339 16.4165 20.9824 16.2998 21.0547C16.183 21.127 16.0817 21.2217 16.0016 21.3332C15.9215 21.4448 15.8643 21.5711 15.8332 21.7048C15.802 21.8386 15.7976 21.9771 15.8202 22.1126L16.0586 23.5488C16.0806 23.6844 16.1291 23.8142 16.2014 23.931C16.2737 24.0477 16.3684 24.1491 16.4799 24.2291C16.5915 24.3092 16.7178 24.3664 16.8515 24.3976C16.9853 24.4287 17.1238 24.4331 17.2593 24.4105L65.7629 16.2443C65.8982 16.2223 66.0278 16.1738 66.1443 16.1017C66.2609 16.0296 66.362 15.9352 66.4421 15.824C66.5221 15.7127 66.5794 15.5868 66.6107 15.4534C66.6421 15.32 66.6468 15.1817 66.6246 15.0465L66.3833 13.6102C66.3389 13.3369 66.1878 13.0923 65.9633 12.9302C65.7387 12.7681 65.459 12.7017 65.1856 12.7457Z" fill="#09335D"/>
<path id="Vector_12" d="M69.8535 50.5316L13.9793 54.6449L8.76013 55.0212C10.1451 54.919 11.4328 54.2709 12.3399 53.2194C13.247 52.1679 13.6993 50.7992 13.5973 49.4142L11.9198 26.5153C11.885 26.0622 11.9401 25.6066 12.082 25.1749C12.2239 24.7431 12.4498 24.3437 12.7466 23.9996C13.0435 23.6555 13.4055 23.3734 13.8118 23.1698C14.218 22.9661 14.6606 22.8448 15.1139 22.8128L69.2992 18.8287C69.7525 18.7935 70.2084 18.8483 70.6405 18.99C71.0726 19.1318 71.4723 19.3576 71.8168 19.6545C72.1612 19.9514 72.4435 20.3135 72.6473 20.72C72.8512 21.1264 72.9726 21.5692 73.0046 22.0228L74.6907 44.9361C74.7903 46.3194 74.3368 47.6856 73.4299 48.7347C72.5229 49.7839 71.2366 50.4301 69.8535 50.5316Z" fill="#09335D"/>
</g>
</svg>
