<svg width="125" height="84" viewBox="0 0 125 84" fill="none" xmlns="http://www.w3.org/2000/svg">
<mask id="mask0_3813_19852" style="mask-type:alpha" maskUnits="userSpaceOnUse" x="0" y="0" width="125" height="84">
<path d="M0 8C0 3.58172 3.58172 0 8 0H125V84H8C3.58172 84 0 80.4183 0 76V8Z" fill="#D9D9D9"/>
</mask>
<g mask="url(#mask0_3813_19852)">
<path opacity="0.4" d="M54.5 -1.16797C42.71 -1.16797 33.125 8.23953 33.125 19.8112C33.125 31.162 42.17 40.3487 53.96 40.7462C54.32 40.702 54.68 40.702 54.95 40.7462C55.04 40.7462 55.085 40.7462 55.175 40.7462C55.22 40.7462 55.22 40.7462 55.265 40.7462C66.785 40.3487 75.83 31.162 75.875 19.8112C75.875 8.23953 66.29 -1.16797 54.5 -1.16797Z" fill="#FF961B"/>
<path d="M77.3601 52.4972C64.8051 44.2822 44.3301 44.2822 31.6851 52.4972C25.9701 56.2514 22.8201 61.3305 22.8201 66.763C22.8201 72.1955 25.9701 77.2305 31.6401 80.9405C37.9401 85.0922 46.2201 87.168 54.5001 87.168C62.7801 87.168 71.0601 85.0922 77.3601 80.9405C83.0301 77.1864 86.1801 72.1514 86.1801 66.6747C86.1351 61.2422 83.0301 56.2072 77.3601 52.4972Z" fill="#FF961B"/>
<path opacity="0.4" d="M103.955 22.4199C104.675 30.9882 98.465 38.4966 89.87 39.5124C89.825 39.5124 89.825 39.5124 89.78 39.5124H89.645C89.375 39.5124 89.105 39.5124 88.88 39.6007C84.515 39.8216 80.51 38.4524 77.495 35.9349C82.13 31.8716 84.785 25.7766 84.245 19.1516C83.93 15.5741 82.67 12.3057 80.78 9.52325C82.49 8.68408 84.47 8.15408 86.495 7.97741C95.315 7.22658 103.19 13.6749 103.955 22.4199Z" fill="#FF961B"/>
<path d="M112.955 63.2729C112.595 67.5571 109.805 71.2671 105.125 73.7846C100.625 76.2138 94.955 77.3621 89.33 77.2296C92.57 74.3588 94.46 70.7813 94.82 66.983C95.27 61.5063 92.615 56.2504 87.305 52.0546C84.29 49.7138 80.78 47.8588 76.955 46.4896C86.9 43.6629 99.41 45.5621 107.105 51.6571C111.245 54.9254 113.36 59.0329 112.955 63.2729Z" fill="#FF961B"/>
</g>
</svg>
