<svg width="125" height="84" viewBox="0 0 125 84" fill="none" xmlns="http://www.w3.org/2000/svg">
<mask id="mask0_3813_19859" style="mask-type:alpha" maskUnits="userSpaceOnUse" x="0" y="0" width="125" height="84">
<path d="M0 8C0 3.58172 3.58172 0 8 0H125V84H8C3.58172 84 0 80.4183 0 76V8Z" fill="#D9D9D9"/>
</mask>
<g mask="url(#mask0_3813_19859)">
<path opacity="0.4" d="M66 3.83203C54.21 3.83203 44.625 13.2395 44.625 24.8112C44.625 36.162 53.67 45.3487 65.46 45.7462C65.82 45.702 66.18 45.702 66.45 45.7462C66.54 45.7462 66.585 45.7462 66.675 45.7462C66.72 45.7462 66.72 45.7462 66.765 45.7462C78.285 45.3487 87.33 36.162 87.375 24.8112C87.375 13.2395 77.79 3.83203 66 3.83203Z" fill="#FF961B"/>
<path d="M88.86 57.4972C76.305 49.2822 55.8299 49.2822 43.1849 57.4972C37.4699 61.2514 34.3199 66.3305 34.3199 71.763C34.3199 77.1955 37.4699 82.2305 43.1399 85.9405C49.4399 90.0922 57.7199 92.168 66 92.168C74.2799 92.168 82.56 90.0922 88.86 85.9405C94.53 82.1864 97.68 77.1514 97.68 71.6747C97.635 66.2422 94.53 61.2072 88.86 57.4972Z" fill="#FF961B"/>
</g>
</svg>
